<svg version="1" xmlns="http://www.w3.org/2000/svg" width="800" height="800" viewBox="0 0 600.000000 600.000000"><path d="M306.9 18.5c-.2.2-3.8.6-8 .9-4.2.4-8.7.9-10 1.1-1.3.3-4.2.7-6.4 1-2.2.2-5.1.7-6.5 1-1.4.3-4.3.7-6.5 1-2.2.3-4.8.8-5.7 1.1-1.6.5-3.4.9-8.8 1.9-5.5 1.1-7.2 1.4-9 2-1 .3-2.7.8-3.7 1-16.2 3.6-52.9 15.5-68.3 22.2-19.8 8.6-47.6 24.6-55.7 32.2-1.2 1.2-2.5 2.1-2.8 2.1-1.7 0-25.4 23.6-31.7 31.5-12.7 16.1-19.2 26.9-23.3 39-5.1 15-10.7 27.3-19.7 43.4-3.2 5.8-5.8 10.6-5.8 10.8 0 .2-1.7 3.4-3.8 7.1-5.9 10.5-17.7 39.9-19.7 49.2-.2.8-.4 1.7-.6 2-.1.3-.3.9-.4 1.5-.1.5-.7 3-1.4 5.5s-1.5 5.4-1.7 6.5c-1.3 6.4-3.5 18.6-4 22-.3 2.2-.7 5.1-.9 6.5-2.5 15.2-2.5 55.5 0 71.1.2 1.3.6 4.6 1 7.2.4 2.7.8 5.9 1.1 7 .2 1.2.6 3.5.9 5.2.4 3.2.7 4.6 2.9 14 2.2 9.5 4.5 17.3 7.7 26.5 1.7 4.7 3.5 10.2 4.1 12.2.6 2.1 1.4 3.8 1.9 3.8s.9.7.9 1.5c0 4.8 16.6 34.7 26.9 48.5 10.9 14.6 31.1 33.2 45.6 42.1 20.6 12.5 42.5 21.2 67 26.5 3.3.7 19.6 3.3 25.5 4.1 12.2 1.5 60 .7 69.9-1.2 1.3-.2 4.7-.7 7.5-1 9.2-1 15.1-2.1 30.1-5.2 6.6-1.4 12.9-2.6 14-2.8 3.2-.6 21.2-5.4 30.1-8 4.4-1.4 8.9-2.6 10-2.8 1-.2 2.6-.7 3.4-1 .8-.3 6.6-2.2 12.7-4.1 6.2-2 12.9-4.2 15-5 2.1-.8 4.7-1.7 5.8-2.2 1.1-.4 2.5-.8 3-1 1.2-.3 15.8-6.1 20-7.9 34.7-15.4 57.5-27.7 78.3-42.1 3.5-2.4 6.5-4.4 6.7-4.4.3 0 1.3-.6 2.2-1.4 1-.8 6.4-5.1 12.1-9.4 26.4-20.4 49.3-44.9 63.8-68.2 6.5-10.3 14.5-27.8 17.8-38.5 6.8-22.4 9.4-42.1 9.1-68.5-.2-11.3-.6-21.6-.9-23-.4-1.4-.8-4.6-1-7.1-.2-2.5-.6-5.5-.9-6.5-.3-1-.8-3.7-1.2-5.8-.3-2.2-1.7-8.2-3.1-13.5-1.4-5.3-2.7-10.3-2.9-11.1-.5-2.2-6.4-18.9-8.3-23.5-7-17.1-31.2-58.5-34.2-58.5-.6 0-1-.6-1-1.3 0-.6-1.2-2.6-2.8-4.2-1.5-1.7-5.2-5.9-8.2-9.4-6.4-7.5-19.8-20.6-28.1-27.5-2.6-2.1-21.9-16.6-25.9-19.4-2.3-1.6-12.8-10.9-14-12.3-1.1-1.4-17.4-19.1-21.3-23.1-11.4-11.8-27.9-22.6-44.5-29.2-5.1-2.1-10-3.9-11-4.1-.9-.1-3.7-.9-6.2-1.6-2.5-.7-4.9-1.3-5.5-1.4-6.2-1.3-12.8-2.6-16.5-3.1-2.5-.3-5.8-.8-7.5-1.1-3.6-.6-47.1-1.3-47.6-.8zm-16.9 68c5.2.3 10.6.8 12 1 1.4.2 4.5.6 7 .9 4.3.6 6.4.9 12 2.1 1.4.2 4 .7 5.9 1 1.9.3 3.7.7 4 .9.3.2 2.2.7 4.1 1 4.9.8 17.9 4.2 28 7.4 4.7 1.4 8.7 2.7 9 2.7.3.1 1.2.4 2 .8.8.3 4.2 1.5 7.5 2.6 3.3 1.2 6.9 2.5 8 3 1.1.5 6.7 2.8 12.5 5.2 10.7 4.4 27.7 12.8 43 21.4 4.7 2.6 10.3 5.7 12.5 6.9 2.2 1.1 4.2 2.4 4.3 2.8.2.5.8.8 1.3.8.9 0 9.3 6 14.8 10.5 13.5 11.2 25.5 23.7 37.1 38.5 2.8 3.6 5.7 7.3 6.5 8.3.8.9 1.5 1.9 1.5 2.2 0 .3 1.5 2.6 3.3 5.2 11.4 16.8 21.2 39.7 26.2 61.6 3.4 14.9 4.5 26.9 4.1 44.7-.4 16.6-.9 19.7-5.1 38.4-2.1 9.4-11.2 30.1-19.2 44.1-2.6 4.4-5.2 8.6-5.9 9.3-.8.7-1.9 2.1-2.6 3-2.7 3.6-8.1 7.2-10.7 7.2-1.7 0-3.8-1.1-5.7-3.1-4.7-5-7.2-5.8-16-5.4-4.3.2-9.3.6-11.1.9-1.8.3-6.9.8-11.4 1.1-4.5.3-10.5.8-13.3 1.1-2.8.2-9.4.6-14.6.9-5.2.3-13.8.7-19 1-32 1.9-65.1 2.8-145.5 4.1-64.7 1-89.4 1-94.5.1-2.5-.4-8.5-1-13.3-1.2-9.7-.5-13.1.6-19.5 6-5.1 4.3-10.6 14.4-12.8 23.6-1.2 4.9-.6 16 .9 17.5.4.4.7 1.3.7 2.1 0 2.3 5.9 8.1 10.4 10.1 4.2 2 11.9 3.6 16.6 3.5 2.8 0 21.9-1.2 32.4-1.9 3.8-.3 7.3-.7 7.8-1 .4-.3.8 0 .8.6s.5.8 1.2.4c.6-.4 4.3-.8 8.2-1 21.1-.8 67.9-1.5 121.1-2 33-.2 62.9-.6 66.5-.8 23.9-1.4 29.9-1.6 30.4-.7.3.5-1.7 1.7-4.4 2.7-2.8 1-5 2.2-5 2.6 0 .4-.7.8-1.5.8-.9 0-3.2 1-5.3 2.3-11.2 6.8-28.9 14-55.7 22.8-13.7 4.4-40.9 11.8-49.3 13.4-1.5.3-3.8.7-5.2 1-5.1 1.1-25.6 4.4-30.5 5-2.7.3-6.6.8-8.5 1-9.1 1.4-45.4 2-57 1-18.5-1.6-27.9-3.1-43-7-1.4-.3-2.9-.7-3.5-.9-4.9-1.2-13.6-4-16-5-1.6-.8-4.1-1.7-5.5-2.1-4.2-1.3-19.2-8.7-24-11.9-9.6-6.5-20.4-15.7-26.4-22.5-1.2-1.3-2.8-3.1-3.7-4-9.6-9.8-24.7-35.9-31.9-55.1-1.8-4.7-3.6-9.3-4.1-10.2-.5-1-.9-2.8-.9-4.1 0-1.3-.3-2.7-.7-3.1-.4-.3-.8-1.2-.9-1.9-.1-.7-.9-4-1.7-7.4-.9-3.4-1.9-8.3-2.3-11-.3-2.6-.8-5-.9-5.3-1-1.6-1.9-16.6-1.9-30.5 0-14.6.3-19.5 2-35 1.3-11.7 6.7-35.3 10.1-43.5.4-.8.7-1.7.8-2 .1-.3.5-1.4.9-2.5.5-1.1 1.4-3.6 2.1-5.5 2.9-7.9 16.1-32.9 18.5-35 1.1-1.1 6-9 6-9.9 0-.5.7-1.2 1.6-1.5.8-.3 1.2-1 .9-1.6-.3-.5-.1-1 .4-1 .6 0 1.1-.6 1.1-1.4 0-.8.4-1.6.8-1.8.4-.2 3-3.9 5.7-8.3 14.9-24.2 32.9-44.5 53-59.5 5.5-4.1 10.2-7.8 10.5-8.1 1.1-1.2 24.1-15.9 24.9-15.9.5 0 1.1-.3 1.3-.8.3-.8 16.4-10.2 17.4-10.2.3 0 1.8-.8 3.2-1.8 3.3-2.2 15.3-7.6 23-10.2 8.6-2.9 17.2-4.6 24.3-4.9 3.5-.1 6.5-.3 6.6-.5.5-.5 21 .1 31.3.9z"/><path d="M376 269.7c-15.3 5.2-28.6 21.2-30.6 36.8-1.3 9.3-1 19.2.5 22.6 3.6 8.1 8.6 11.9 16.2 12.3 6.3.3 10.5-.8 17.9-4.8 9.5-5.1 16.3-13.4 19.8-24.2 1.5-4.6.7-23.9-1.2-30.9-2-7-4.3-9.8-9.5-11.4-3.9-1.1-10.4-1.4-13.1-.4zm-212.9 1.5c-11.7 3.3-27.6 23.6-30.9 39.4-2.9 13.5 2.9 25.2 13.8 28.2 8.4 2.2 19.5-.7 26.9-7.2 13-11.5 18.8-44.1 10-56.4-3.3-4.5-12-6.3-19.8-4z"/></svg>